<?xml version="1.0" encoding="utf-8"?>
<!-- Generator: Adobe Illustrator 23.0.2, SVG Export Plug-In . SVG Version: 6.00 Build 0)  -->
<svg version="1.1" id="图层_1" xmlns="http://www.w3.org/2000/svg" xmlns:xlink="http://www.w3.org/1999/xlink" x="0px" y="0px"
	 viewBox="0 0 28.35 28.35" style="enable-background:new 0 0 28.35 28.35;" xml:space="preserve">
<style type="text/css">
	.st0{fill:#CC0000;}
</style>
<path d="M11.36,19.45c0.8,0.04,1.58,0.08,2.36,0.12c0.06-0.42,0.11-0.78,0.18-1.14c0.35-1.9,1.05-3.57,2.01-5.02
	c2.12-3.21,4.78-5.06,7.94-5.59c0.72-0.12,1.44-0.16,2.15,0.07c0.22,0.07,0.44,0.19,0.64,0.35c0.31,0.25,0.37,0.63,0.21,1.06
	c-0.19,0.49-0.52,0.72-0.89,0.88c-0.12,0.05-0.25,0.07-0.38,0.06c-0.13,0-0.15-0.09-0.08-0.24c0.04-0.08,0.08-0.16,0.12-0.25
	c0.19-0.46,0.11-0.84-0.24-1.09c-0.28-0.2-0.58-0.25-0.88-0.26c-0.62-0.02-1.21,0.16-1.79,0.42c-2,0.91-3.6,2.55-4.87,4.79
	c-0.92,1.63-1.56,3.44-1.97,5.41c-0.01,0.05-0.01,0.09-0.02,0.15c0.03,0,0.06,0,0.08-0.01c0.79-0.26,1.54-0.63,2.2-1.29
	c0.01-0.01,0.03-0.03,0.05-0.04c0.12-0.1,0.25-0.08,0.32,0.05c0.07,0.13,0.06,0.32-0.06,0.43c-0.3,0.27-0.6,0.54-0.91,0.77
	c-0.52,0.37-1.08,0.59-1.65,0.74c-0.11,0.03-0.15,0.08-0.17,0.23c-0.14,1.29-0.06,2.56,0.25,3.79c0.09,0.37,0.06,0.53-0.21,0.68
	c-0.5,0.28-1.01,0.28-1.51,0.03c-0.13-0.06-0.21-0.19-0.26-0.36c-0.33-1.1-0.39-2.25-0.32-3.42c0.01-0.17,0.01-0.33,0.02-0.5
	c0-0.02,0-0.05-0.01-0.08c-0.15,0-0.29,0.01-0.43,0c-0.65-0.04-1.29-0.08-1.94-0.13c-0.1-0.01-0.15,0.03-0.19,0.15
	c-0.48,1.21-1.1,2.25-1.93,3.06c-0.61,0.6-1.27,1.04-2.03,1.13c-0.28,0.03-0.58,0.01-0.85-0.08c-0.81-0.27-1.22-1.26-1.02-2.39
	c0.18-0.97,0.62-1.68,1.23-2.21c0.83-0.71,1.74-0.93,2.71-0.75c0.26,0.05,0.26,0.05,0.35-0.27c0.28-1,0.41-2.04,0.55-3.09
	c0.05-0.34,0.1-0.68,0.14-1.02c0.01-0.05,0-0.13-0.02-0.16c-0.45-0.57-0.9-1.14-1.36-1.69c-0.32-0.39-0.71-0.64-1.14-0.77
	c-0.74-0.22-1.47,0.12-1.87,0.89c-0.19,0.36-0.28,0.76-0.3,1.2c-0.02,0.33-0.06,0.4-0.3,0.49c-0.26,0.1-0.52,0.1-0.77-0.04
	c-0.17-0.09-0.22-0.21-0.2-0.45C4.3,13.31,4.57,12.71,5,12.28c0.99-1,2.09-1.29,3.28-0.77c0.49,0.21,0.87,0.65,1.23,1.11
	c0.2,0.26,0.4,0.53,0.61,0.79c0.08,0.1,0.16,0.2,0.24,0.29c0.12-0.43,0.23-0.84,0.36-1.24c0.38-1.12,0.97-1.98,1.85-2.43
	c0.7-0.36,1.37-0.3,2.02,0.23c0.35,0.28,0.52,0.87,0.43,1.51c-0.23,1.72-1.39,3.22-2.68,3.45c-0.11,0.02-0.15,0.07-0.18,0.22
	c-0.16,0.94-0.32,1.88-0.5,2.82C11.61,18.65,11.48,19.01,11.36,19.45z M9.23,19.64c-0.4-0.1-0.78-0.12-1.16-0.06
	c-0.8,0.13-1.48,0.55-2,1.39c-0.31,0.51-0.47,1.09-0.37,1.76c0.09,0.61,0.46,0.95,0.92,0.83C7,23.48,7.31,23.22,7.59,22.9
	c0.66-0.76,1.15-1.7,1.51-2.76C9.15,19.99,9.18,19.83,9.23,19.64z M12.31,14.59c0.04,0,0.07,0,0.09,0c1.01-0.2,1.98-1.46,2.16-2.81
	c0.05-0.35,0.02-0.69-0.21-0.91c-0.22-0.21-0.46-0.14-0.68,0c-0.33,0.21-0.56,0.57-0.73,0.99C12.6,12.71,12.46,13.64,12.31,14.59z"
	/>
<path class="st0" d="M7.75,4.88C8,4.62,8.21,4.36,8.45,4.14C8.81,3.83,9.22,3.66,9.7,3.77c0.53,0.11,1.11,0.68,1.2,1.17
	c0.07,0.43-0.1,0.8-0.33,1.14c-0.45,0.65-1.06,1.13-1.7,1.58C8.52,7.89,8.16,8.1,7.81,8.32C7.76,8.35,7.68,8.36,7.63,8.34
	c-0.88-0.4-1.71-0.88-2.39-1.58C4.92,6.42,4.65,6.04,4.6,5.55c-0.01-0.13-0.02-0.27,0.01-0.4c0.15-0.6,0.44-1.11,1.04-1.36
	c0.43-0.18,0.82-0.02,1.19,0.21c0.34,0.22,0.63,0.51,0.88,0.83C7.74,4.86,7.75,4.88,7.75,4.88z"/>
</svg>
