<?xml version="1.0" encoding="utf-8"?>
<!-- Generator: Adobe Illustrator 23.0.2, SVG Export Plug-In . SVG Version: 6.00 Build 0)  -->
<svg version="1.1" id="图层_1" xmlns="http://www.w3.org/2000/svg" xmlns:xlink="http://www.w3.org/1999/xlink" x="0px" y="0px"
	 viewBox="0 0 64 31.1" style="enable-background:new 0 0 64 31.1;" xml:space="preserve">
<style type="text/css">
	.st0{fill:#CC0000;}
</style>
<path d="M11.4,19.4c0.8,0,1.6,0.1,2.4,0.1c0.1-0.4,0.1-0.8,0.2-1.1c0.4-1.9,1.1-3.6,2-5c2.1-3.2,4.8-5.1,7.9-5.6
	c0.7-0.1,1.4-0.2,2.1,0.1c0.2,0.1,0.4,0.2,0.6,0.3c0.3,0.2,0.4,0.6,0.2,1.1c-0.2,0.5-0.5,0.7-0.9,0.9c-0.1,0.1-0.2,0.1-0.4,0.1
	c-0.1,0-0.1-0.1-0.1-0.2c0-0.1,0.1-0.2,0.1-0.2c0.2-0.5,0.1-0.8-0.2-1.1c-0.3-0.2-0.6-0.2-0.9-0.3c-0.6,0-1.2,0.2-1.8,0.4
	c-2,0.9-3.6,2.6-4.9,4.8c-0.9,1.6-1.6,3.4-2,5.4c0,0,0,0.1,0,0.1c0,0,0.1,0,0.1,0c0.8-0.3,1.5-0.6,2.2-1.3c0,0,0,0,0,0
	c0.1-0.1,0.2-0.1,0.3,0s0.1,0.3-0.1,0.4c-0.3,0.3-0.6,0.5-0.9,0.8c-0.5,0.4-1.1,0.6-1.6,0.7c-0.1,0-0.1,0.1-0.2,0.2
	c-0.1,1.3-0.1,2.6,0.2,3.8c0.1,0.4,0.1,0.5-0.2,0.7c-0.5,0.3-1,0.3-1.5,0c-0.1-0.1-0.2-0.2-0.3-0.4c-0.3-1.1-0.4-2.2-0.3-3.4
	c0-0.2,0-0.3,0-0.5c0,0,0,0,0-0.1c-0.1,0-0.3,0-0.4,0c-0.6,0-1.3-0.1-1.9-0.1c-0.1,0-0.1,0-0.2,0.1c-0.5,1.2-1.1,2.2-1.9,3.1
	c-0.6,0.6-1.3,1-2,1.1c-0.3,0-0.6,0-0.8-0.1c-0.8-0.3-1.2-1.3-1-2.4c0.2-1,0.6-1.7,1.2-2.2C7.3,19,8.3,18.8,9.2,19
	c0.3,0,0.3,0,0.4-0.3c0.3-1,0.4-2,0.6-3.1c0.1-0.3,0.1-0.7,0.1-1c0-0.1,0-0.1,0-0.2c-0.4-0.6-0.9-1.1-1.4-1.7
	c-0.3-0.4-0.7-0.6-1.1-0.8c-0.7-0.2-1.5,0.1-1.9,0.9c-0.2,0.4-0.3,0.8-0.3,1.2c0,0.3-0.1,0.4-0.3,0.5c-0.3,0.1-0.5,0.1-0.8,0
	c-0.2-0.1-0.2-0.2-0.2-0.4c0-0.7,0.3-1.3,0.7-1.8c1-1,2.1-1.3,3.3-0.8c0.5,0.2,0.9,0.6,1.2,1.1c0.2,0.3,0.4,0.5,0.6,0.8
	c0.1,0.1,0.2,0.2,0.2,0.3c0.1-0.4,0.2-0.8,0.4-1.2c0.4-1.1,1-2,1.9-2.4c0.7-0.4,1.4-0.3,2,0.2c0.4,0.3,0.5,0.9,0.4,1.5
	c-0.2,1.7-1.4,3.2-2.7,3.4c-0.1,0-0.1,0.1-0.2,0.2c-0.2,0.9-0.3,1.9-0.5,2.8C11.6,18.6,11.5,19,11.4,19.4z M9.2,19.6
	c-0.4-0.1-0.8-0.1-1.2-0.1c-0.8,0.1-1.5,0.5-2,1.4c-0.3,0.5-0.5,1.1-0.4,1.8c0.1,0.6,0.5,1,0.9,0.8c0.4-0.1,0.7-0.3,1-0.7
	c0.7-0.8,1.1-1.7,1.5-2.8C9.1,20,9.2,19.8,9.2,19.6z M12.3,14.6C12.4,14.6,12.4,14.6,12.3,14.6c1.1-0.2,2.1-1.5,2.2-2.8
	c0.1-0.4,0-0.7-0.2-0.9c-0.2-0.2-0.5-0.1-0.7,0c-0.3,0.2-0.6,0.6-0.7,1C12.6,12.7,12.5,13.6,12.3,14.6z"/>
<path class="st0" d="M7.8,4.9C8,4.6,8.2,4.4,8.4,4.1c0.4-0.3,0.8-0.5,1.2-0.4c0.5,0.1,1.1,0.7,1.2,1.2c0.1,0.4-0.1,0.8-0.3,1.1
	c-0.4,0.7-1.1,1.1-1.7,1.6C8.5,7.9,8.2,8.1,7.8,8.3c0,0-0.1,0-0.2,0C6.8,7.9,5.9,7.5,5.2,6.8C4.9,6.4,4.7,6,4.6,5.5
	c0-0.1,0-0.3,0-0.4c0.2-0.6,0.4-1.1,1-1.4c0.4-0.2,0.8,0,1.2,0.2C7.2,4.2,7.5,4.5,7.8,4.9C7.7,4.9,7.8,4.9,7.8,4.9z"/>
<g>
	<path d="M23.8,20.5c1.4-0.6,1.6-0.9,1.7-1.1l0-0.2l-0.2,0.1c-0.5,0.3-0.9,0.4-1.1,0.4c-0.2,0-0.2,0-0.3,0c0.1-0.3,0.1-0.5,0.1-0.7
		c0-0.8-0.4-1.2-1.2-1.2c-0.8,0-1.8,0.8-3.1,2.3c-1.3,1.6-1.9,2.7-1.9,3.6c0,0.3,0.1,0.7,0.3,0.9c0.2,0.4,0.5,0.6,1,0.6h0.3
		c0.8,0,1.8-0.7,2.9-2.1c1-1.2,1.4-2,1.4-2.5C23.8,20.6,23.8,20.5,23.8,20.5z M22.2,19.6c0.3,0.5,0.6,0.8,0.8,0.9
		c0,0.5-0.5,1.2-1.4,2.2c-0.9,1.1-1.7,1.6-2.2,1.6c-0.2,0-0.4-0.1-0.4-0.7c0-0.5,0.4-1.3,1.3-2.4C21.2,20.2,21.8,19.7,22.2,19.6z"/>
	<path d="M33.4,18.8c-0.2-0.3-0.4-0.5-0.7-0.5c-0.1,0-0.2,0.1-0.2,0.2c0,0.1,0,0.1,0.1,0.2c0.2,0.3,0.3,0.7,0.3,1.3
		c0,0.7-0.3,1.6-0.9,2.8c-0.6,1.1-1.3,1.7-2,1.7h-0.3c-0.5,0-0.8-0.4-0.8-1.2c0-0.5,0.1-1,0.4-1.5c0.3-0.5,0.6-1,1-1.5
		c0.5-0.7,0.6-0.9,0.6-1c0-0.1-0.1-0.3-0.3-0.4c-0.2-0.1-0.3-0.2-0.5-0.2c-0.3,0-0.9,0.2-2.8,2.4c-0.1,0.1-0.6,0.8-1.8,2.1l-0.1,0.1
		c0.1-0.4,0.4-1,1-2c1.2-2.1,1.2-2.2,1.2-2.2c0-0.1-0.1-0.2-0.2-0.4c-0.1-0.2-0.3-0.3-0.5-0.3c-0.3,0-0.8,0.3-2,2.9
		c-0.9,1.9-1.3,3-1.3,3.4c0,0.2,0.1,0.4,0.4,0.5c0.3,0.2,0.5,0.2,0.6,0.2h0.1l0,0c0.3-0.5,0.8-1.2,1.6-2.2c0.6-0.8,1.1-1.4,1.5-1.8
		c-0.2,0.6-0.2,1.1-0.2,1.5c0,0.5,0.2,1,0.5,1.5c0.3,0.5,0.8,0.8,1.3,0.8c1.1,0,2-0.5,2.9-1.6c0.9-1.1,1.4-2.1,1.4-3.2
		C33.7,19.5,33.6,19,33.4,18.8z"/>
	<path d="M51.5,18.9c-0.4,0-0.7,0.2-1,0.5c-0.3,0.4-0.5,0.6-0.6,0.8c-0.7,0.7-1.7,1.5-3.1,2.6c-1.3,1-2.2,1.6-2.7,1.6
		c-0.3,0-0.3-0.1-0.3-0.2c0-0.3,0.3-1,1.8-2.6c1.9-2,1.9-2.2,1.9-2.3c0-0.3-0.1-0.6-0.8-0.6c-0.5,0-1.3,0.7-2.4,2.1
		c-0.2,0.3-0.5,0.6-0.6,0.9c-1.6,1.9-3,2.8-4,2.8c-0.3,0-0.7-0.1-0.7-0.9c0-0.2,0-0.4,0.1-0.6c0.2-0.9,1.1-2.4,2.7-4.5
		c0.6-0.7,1.4-1.8,2.5-3.1c0.1-0.1,0.1-0.2,0.1-0.3c0-0.1-0.1-0.3-0.3-0.4c-0.2-0.1-0.3-0.1-0.4-0.1c-0.6,0-1.7,1.2-3.3,3.7
		c0-0.1-0.1-0.2-0.1-0.3c-0.2-0.2-0.5-0.4-0.9-0.4c-1.2,0-2.6,0.7-4,2.2c-1.4,1.4-2.2,2.7-2.2,3.8c0,0.5,0.2,0.9,0.6,1.2
		c0.3,0.3,0.7,0.4,1.2,0.4c0.5,0,1.1-0.4,1.9-1.1l1.4-1.4c-0.1,0.3-0.1,0.7-0.1,1c0,0.4,0.1,0.7,0.3,1c0.2,0.3,0.6,0.5,1.1,0.5
		c0.1,0,0.2,0,0.3,0c0.9-0.2,1.9-0.8,3-1.8c0,0.2-0.1,0.3-0.1,0.4c0,0.3,0.1,0.6,0.3,0.8c0.2,0.2,0.5,0.4,0.8,0.4
		c0.6,0,1.4-0.4,2.4-1.1l2.8-2.2l-0.7,1.6c-0.6,1.4-1.3,2.6-2,3.5c-0.9,1.2-1.8,1.9-2.5,1.9c-0.5,0-1-0.4-1.7-1.2l-0.2-0.2l0,0.3
		c0,0.5,0.2,1,0.5,1.4c0.4,0.4,0.8,0.6,1.3,0.6c1.4,0,2.8-1.1,4.2-3.3c0.9-1.6,1.6-2.8,2-3.7c0-0.1,0.4-0.6,1-1.5c1-1.4,1-1.5,1-1.6
		C52.1,19.1,51.9,18.9,51.5,18.9z M40.2,18.9c-1.4,1.9-2.2,3-2.5,3.3c-1.4,1.6-2.4,2.5-2.9,2.5c-0.2,0-0.4-0.1-0.4-0.7
		c0-0.8,0.7-1.9,2.1-3.2c1.4-1.3,2.5-2,3.4-2C40,18.8,40.2,18.8,40.2,18.9z"/>
</g>
<path d="M59.9,18.3c1.4-0.8,2-2.1,1.7-3.2c-0.3-1.1-1.4-1.8-3-1.8c-2.4,0-4,1.1-4,2.8c0,0.3,0.2,0.4,0.4,0.4c0.2,0,0.6-0.2,0.6-0.5
	c0-1.1,1.7-1.6,2.7-1.6c1.1,0,1.8,0.6,1.8,1.4c0,0.5-0.3,1-0.9,1.4c-1,0.7-2.3,0.5-2.8,0.4c-0.3-0.1-0.6,0-0.7,0.2
	c-0.1,0.2-0.2,0.4-0.1,0.6c0.1,0.2,0.3,0.4,0.7,0.4c0.3,0,0.6,0,1-0.1c0.3-0.1,0.6-0.1,0.9-0.1c0.9,0.3,1.5,0.8,1.5,1.4
	c0,2.2-2.5,4.1-4.6,4.1c-0.6,0-1.8-0.3-1.9-1.3c0-0.2,0-0.4,0.1-0.5c0.1-0.3-0.1-0.6-0.4-0.7c-0.3-0.1-0.7,0-0.8,0.4
	c-0.1,0.3-0.2,0.5-0.2,0.8c0,1,0.6,2.2,3.2,2.2c2.6,0,6.3-1.9,6.3-4.9C61.2,19.3,60.7,18.6,59.9,18.3z"/>
</svg>
